<?xml version="1.0" encoding="utf-8"?>
<!-- Generator: Adobe Illustrator 25.0.1, SVG Export Plug-In . SVG Version: 6.00 Build 0)  -->
<svg version="1.1" id="Capa_1" xmlns="http://www.w3.org/2000/svg" xmlns:xlink="http://www.w3.org/1999/xlink" x="0px" y="0px"
	 viewBox="0 0 149.0399933 61.7400017" style="enable-background:new 0 0 149.0399933 61.7400017;" xml:space="preserve">
<style type="text/css">
	.st0{fill:#C8CDD0;}
	.st1{fill:#18317E;}
</style>
<g>
	<line class="st0" x1="-535.2800293" y1="93.2060013" x2="-535.2800293" y2="104.0400009"/>
	<line class="st0" x1="272.5940247" y1="104.0400009" x2="272.5940247" y2="93.2060013"/>
	<g>
		<path class="st1" d="M0.6469226,61.3148499h2.3319702l0.6099854-1.2019997h4.2300415l0.6489873,1.2019997h2.3219604
			l-3.7419438-6.8050003H4.3319201L0.6469226,61.3148499z M5.6859241,56.0888481l1.3529663,2.557003H4.369884L5.6859241,56.0888481z
			"/>
		<polygon class="st1" points="13.3523674,61.3146477 15.4393425,61.3146477 15.4393425,56.3716507 15.4583244,56.3716507 
			19.3773308,61.3146477 22.6113396,61.3146477 22.6113396,54.5096512 20.5243645,54.5096512 20.5243645,59.4546509 
			20.5053215,59.4546509 16.5863152,54.5096512 13.3523674,54.5096512 		"/>
		<polygon class="st1" points="25.3436394,56.2016487 28.2775993,56.2016487 28.2775993,61.3146515 30.3626213,61.3146515 
			30.3626213,56.2016487 33.2956047,56.2016487 33.2956047,54.5096512 25.3436394,54.5096512 		"/>
		<g>
			<path class="st1" d="M35.8792229,58.9274483c0,1.9920006,1.1190186,2.4630013,2.9990234,2.4630013h3.3460083
				c1.8789673,0,2.9970093-0.4710007,2.9970093-2.4630013v-2.0299988c0-1.993-1.118042-2.4630013-2.9970093-2.4630013h-3.3460083
				c-1.8800049,0-2.9990234,0.4700012-2.9990234,2.4630013V58.9274483z M38.0232658,57.5464478
				c0-0.8449974,0.2059937-1.3639984,1.3049927-1.3639984h2.4439697c1.098999,0,1.3070068,0.519001,1.3070068,1.3639984v0.7330017
				c0,0.9860001-0.2080078,1.3619995-1.1939697,1.3619995H39.216259c-0.9869995,0-1.1929932-0.3759995-1.1929932-1.3619995
				V57.5464478z"/>
		</g>
		<polygon class="st1" points="48.3032341,61.3146477 50.388195,61.3146477 50.388195,56.3716507 50.407177,56.3716507 
			54.3281975,61.3146477 57.5601921,61.3146477 57.5601921,54.5096512 55.4752312,54.5096512 55.4752312,59.4546509 
			55.4561882,59.4546509 51.5371819,54.5096512 48.3032341,54.5096512 		"/>
		<rect x="60.9065666" y="54.5095482" class="st1" width="2.0859985" height="6.8050003"/>
		<g>
			<path class="st1" d="M66.1848221,58.9274483c0,1.9920006,1.1190186,2.4630013,2.9990234,2.4630013h3.3460083
				c1.8789673,0,2.9970093-0.4710007,2.9970093-2.4630013v-2.0299988c0-1.993-1.118042-2.4630013-2.9970093-2.4630013h-3.3460083
				c-1.8800049,0-2.9990234,0.4700012-2.9990234,2.4630013V58.9274483z M68.3288651,57.5464478
				c0-0.8449974,0.2059937-1.3639984,1.3049927-1.3639984h2.4439697c1.1010132,0,1.3070068,0.519001,1.3070068,1.3639984v0.7330017
				c0,0.9860001-0.2059937,1.3619995-1.1939697,1.3619995h-2.6690063c-0.9869995,0-1.1929932-0.3759995-1.1929932-1.3619995
				V57.5464478z"/>
		</g>
		<polygon class="st1" points="85.0731277,61.3146477 87.1591263,61.3146477 87.1591263,56.3716507 87.1781082,56.3716507 
			91.0980911,61.3146477 94.3320999,61.3146477 94.3320999,54.5096512 92.2451248,54.5096512 92.2451248,59.4546509 
			92.2260818,59.4546509 88.3051224,54.5096512 85.0731277,54.5096512 		"/>
		<path class="st1" d="M96.8952103,61.3148499h2.3309937l0.6099854-1.2019997h4.2300415l0.6489868,1.2019997h2.3219604
			l-3.7419434-6.8050003h-2.7150269L96.8952103,61.3148499z M101.9332352,56.0888481l1.3529663,2.557003h-2.6690063
			L101.9332352,56.0888481z"/>
		<g>
			<path class="st1" d="M111.6862869,56.2016487h3.2630005c0.6560059,0,0.9580078,0.112999,0.9580078,0.7150002v0.2260017
				c0,0.487999-0.2069702,0.7129974-0.7709961,0.7129974h-3.4500122V56.2016487z M109.601326,61.3146477h2.0849609v-1.7669983
				h3.2819824c0.6470337,0,0.8550415,0.2350006,0.8550415,0.9500008v0.8169975h2.0849609v-1.1559982
				c0-1.118-0.5149536-1.3909988-1.1349487-1.5040016v-0.0189972c0.9579468-0.2250023,1.1640015-0.7610016,1.1640015-1.6730003
				v-0.4309998c0-1.2229996-0.4320068-2.0219994-2.0400391-2.0219994h-6.2959595V61.3146477z"/>
		</g>
		<rect x="121.2815628" y="54.5095482" class="st1" width="2.085022" height="6.8050003"/>
		<g>
			<path class="st1" d="M129.8598785,53.9466476c0.0380249-0.310997,0.2730103-0.5549965,0.5820313-0.5549965
				c0.4140015,0,1.0629883,0.4519997,1.7869873,0.4519997c0.9680176,0,1.382019-0.7350006,1.4940186-1.5890007h-0.8920288
				c-0.0379639,0.2630005-0.2639771,0.5169983-0.5459595,0.5169983c-0.3760376,0-1.2130127-0.5169983-1.8050537-0.5169983
				c-0.8739624,0-1.4189453,0.9209976-1.5130005,1.6919975H129.8598785z M126.7119217,61.3146477h2.0860062v-4.942997h0.0189819
				l3.9179688,4.942997h3.2340088v-6.8049965h-2.0869751v4.9449997h-0.019043l-3.9189453-4.9449997h-3.2320023V61.3146477z"/>
			<path class="st1" d="M139.0501251,58.9274483c0,1.9920006,1.117981,2.4630013,2.9989624,2.4630013h3.3469849
				c1.8790283,0,2.9970093-0.4710007,2.9970093-2.4630013v-2.0299988c0-1.993-1.117981-2.4630013-2.9970093-2.4630013h-3.3469849
				c-1.8809814,0-2.9989624,0.4700012-2.9989624,2.4630013V58.9274483z M141.1931305,57.5464478
				c0-0.8449974,0.2059937-1.3639984,1.3069458-1.3639984h2.4440308c1.098999,0,1.3070068,0.519001,1.3070068,1.3639984v0.7330017
				c0,0.9860001-0.2080078,1.3619995-1.1950073,1.3619995h-2.6690063c-0.9879761,0-1.1939697-0.3759995-1.1939697-1.3619995
				V57.5464478z"/>
			<path class="st1" d="M0.7916369,48.4431496c0,1.2450027,0.6279907,1.6100006,2.1869507,1.6100006h2.8309937
				c1.559021,0,2.1870117-0.3649979,2.1870117-1.6100006v-4.593998H7.1655993v4.5849991
				c0,0.5930023-0.2030029,0.9410019-1.3309937,0.9410019H2.9536242c-1.1279907,0-1.3309937-0.3479996-1.3309937-0.9410019
				v-4.5849991H0.7916369V48.4431496z"/>
		</g>
		<polygon class="st1" points="16.256115,49.9846497 17.0850945,49.9846497 17.0850945,44.5936508 22.704113,49.9846497 
			23.9430656,49.9846497 23.9430656,43.8486519 23.112072,43.8486519 23.112072,49.2396507 17.4931145,43.8486519 
			16.256115,43.8486519 		"/>
		<rect x="32.2265739" y="43.8495522" class="st1" width="0.8319702" height="6.1349983"/>
		<polygon class="st1" points="44.1496696,49.9846497 45.167614,49.9846497 48.5646477,43.8486519 47.6326408,43.8486519 
			44.6586418,49.2396507 41.6836662,43.8486519 40.7506218,43.8486519 		"/>
		<polygon class="st1" points="56.2376213,49.9846497 62.2985954,49.9846497 62.2985954,49.3076515 57.068615,49.3076515 
			57.068615,47.1616516 62.0606194,47.1616516 62.0606194,46.4846497 57.068615,46.4846497 57.068615,44.5276527 
			62.2635612,44.5276527 62.2635612,43.8486519 56.2376213,43.8486519 		"/>
		<g>
			<path class="st1" d="M70.1906815,49.9845505h0.8310547v-2.4230003h4.0509644
				c0.7540283,0,1.2210083,0.1189995,1.2210083,1.0769997v1.3460007h0.7799683v-1.5680008
				c0-0.5589981-0.2049561-1-1.0519409-1.1519966V47.247551c0.6359863-0.0589981,1.1279907-0.2970009,1.1279907-1.1609993v-0.5
				c0-1.1529999-0.2810059-1.737999-2.052002-1.737999h-4.9070435V49.9845505z M71.0217361,46.8825493v-2.3549995h3.7789917
				c1.2210083,0,1.5180054,0.2190018,1.5180054,0.9070015v0.5579987c0,0.644001-0.3900146,0.8899994-1.3130493,0.8899994H71.0217361
				z"/>
			<path class="st1" d="M85.1366653,48.5019493c0,1.3390007,1.0669556,1.5510025,2.2789917,1.5510025h2.3059692
				c1.2290039,0,2.4660034-0.1110001,2.4660034-1.6189995v-0.3980026c0-1.0419998-0.6790161-1.5089989-2.2960205-1.5089989
				h-2.4589844c-1.2969971,0-1.5249634-0.2449989-1.5249634-0.9749985c0-1.0079994,0.5679932-1.0930023,2.1689453-1.0930023
				h0.882019c2.1780396,0,2.2810059,0.1780014,2.2969971,1.1529999h0.7800293v-0.211998
				c0-1.0930023-0.5170288-1.6200027-2.5770264-1.6200027h-1.7879639c-1.7120361,0-2.5440063,0.3150024-2.5440063,1.7130013
				c0,1.6280022,0.8319702,1.7800026,3.3659668,1.7800026h1.5759888c1.0339966,0,1.3390503,0.1949997,1.3390503,0.9649963
				c0,0.882-0.3550415,1.1380005-1.559021,1.1380005h-2.5770264c-1.0339966,0-1.355957-0.2889977-1.355957-0.8919983v-0.4309998
				h-0.7789917V48.5019493z"/>
		</g>
		<rect x="100.3615189" y="43.8495522" class="st1" width="0.8289795" height="6.1349983"/>
		<g>
			<path class="st1" d="M116.2165604,47.2476501c0,1.8390007-0.6950073,2.0600014-1.7039795,2.0600014h-4.2119751v-4.7799988
				h4.3469849c1.0180054,0,1.5689697,0.3219986,1.5689697,2.0929985V47.2476501z M109.4696121,49.9846497h4.93396
				c2.0839844,0,2.6439819-0.8129997,2.6439819-3.0669975c0-2.4249992-0.5599976-3.0690002-2.6189575-3.0690002h-4.9589844
				V49.9846497z"/>
		</g>
		<path class="st1" d="M124.5070877,49.9841537h0.94104l0.7630005-1.295002h4.9159622l0.7630005,1.295002h0.9400024
			l-3.6439819-6.1350021h-1.0339966L124.5070877,49.9841537z M130.7291412,48.0101509h-4.1200638l2.0600052-3.4829979
			L130.7291412,48.0101509z"/>
		<g>
			<path class="st1" d="M147.1483307,47.2476501c0,1.8390007-0.6950073,2.0600014-1.7030029,2.0600014h-4.2130127v-4.7799988
				h4.348999c1.0169678,0,1.5670166,0.3219986,1.5670166,2.0929985V47.2476501z M140.4033356,49.9846497h4.9319458
				c2.0840454,0,2.644043-0.8129997,2.644043-3.0669975c0-2.4249992-0.5599976-3.0690002-2.618042-3.0690002h-4.9579468V49.9846497z
				"/>
			<path class="st1" d="M0.7314563,25.1853523c0,9.5350037,4.9259644,14.0880051,15.730957,14.0880051h16.8410034
				c10.8049927,0,15.7290039-4.5530014,15.7290039-14.0880051V0.5053512H37.2764397v22.1390076
				c0,4.871994-1.7479858,6.7789993-6.5679932,6.7789993H19.0564079c-4.8189697,0-6.5669556-1.9070053-6.5669556-6.7789993
				V0.5053512H0.7314563V25.1853523z"/>
			<path class="st1" d="M147.9698639,14.4375486c0-9.5329971-4.9260254-14.0879974-15.7310181-14.0879974h-16.841011
				c-10.8049927,0-15.7290039,4.5550003-15.7290039,14.0879974v24.6790009h11.7559814V16.97855
				c0-4.871995,1.7479858-6.7790003,6.5679932-6.7790003h11.6520462c4.8189697,0,6.5669556,1.9070053,6.5669556,6.7790003
				v22.1380005h11.7580566V14.4375486z"/>
			<path class="st1" d="M98.4489212,14.4375486c0-9.5329971-4.9260254-14.0879974-15.7290039-14.0879974H65.8768997
				c-10.8029747,0-15.7290001,4.5550003-15.7290001,14.0879974v24.6790009h11.7579956V16.97855
				c0-4.871995,1.7470093-6.7790003,6.5670128-6.7790003h11.6519775c4.8179932,0,6.565979,1.9070053,6.565979,6.7790003v22.1380005
				h11.7580566V14.4375486z"/>
		</g>
		<rect x="58.6985588" y="18.2545509" class="st1" width="31.632019" height="10.302002"/>
		<path class="st1" d="M0.6469226,61.3148499h2.3319702l0.6099854-1.2019997h4.2300415l0.6489873,1.2019997h2.3219604
			l-3.7419438-6.8050003H4.3319201L0.6469226,61.3148499z M5.6859241,56.0888481l1.3529663,2.557003H4.369884L5.6859241,56.0888481z
			"/>
		<polygon class="st1" points="13.3523674,61.3146477 15.4393425,61.3146477 15.4393425,56.3716507 15.4583244,56.3716507 
			19.3773308,61.3146477 22.6113396,61.3146477 22.6113396,54.5096512 20.5243645,54.5096512 20.5243645,59.4546509 
			20.5053215,59.4546509 16.5863152,54.5096512 13.3523674,54.5096512 		"/>
		<polygon class="st1" points="25.3436394,56.2016487 28.2775993,56.2016487 28.2775993,61.3146515 30.3626213,61.3146515 
			30.3626213,56.2016487 33.2956047,56.2016487 33.2956047,54.5096512 25.3436394,54.5096512 		"/>
		<g>
			<path class="st1" d="M35.8792229,58.9274483c0,1.9920006,1.1190186,2.4630013,2.9990234,2.4630013h3.3460083
				c1.8789673,0,2.9970093-0.4710007,2.9970093-2.4630013v-2.0299988c0-1.993-1.118042-2.4630013-2.9970093-2.4630013h-3.3460083
				c-1.8800049,0-2.9990234,0.4700012-2.9990234,2.4630013V58.9274483z M38.0232658,57.5464478
				c0-0.8449974,0.2059937-1.3639984,1.3049927-1.3639984h2.4439697c1.098999,0,1.3070068,0.519001,1.3070068,1.3639984v0.7330017
				c0,0.9860001-0.2080078,1.3619995-1.1939697,1.3619995H39.216259c-0.9869995,0-1.1929932-0.3759995-1.1929932-1.3619995
				V57.5464478z"/>
		</g>
		<polygon class="st1" points="48.3032341,61.3146477 50.388195,61.3146477 50.388195,56.3716507 50.407177,56.3716507 
			54.3281975,61.3146477 57.5601921,61.3146477 57.5601921,54.5096512 55.4752312,54.5096512 55.4752312,59.4546509 
			55.4561882,59.4546509 51.5371819,54.5096512 48.3032341,54.5096512 		"/>
		<rect x="60.9065666" y="54.5095482" class="st1" width="2.0859985" height="6.8050003"/>
		<g>
			<path class="st1" d="M66.1848221,58.9274483c0,1.9920006,1.1190186,2.4630013,2.9990234,2.4630013h3.3460083
				c1.8789673,0,2.9970093-0.4710007,2.9970093-2.4630013v-2.0299988c0-1.993-1.118042-2.4630013-2.9970093-2.4630013h-3.3460083
				c-1.8800049,0-2.9990234,0.4700012-2.9990234,2.4630013V58.9274483z M68.3288651,57.5464478
				c0-0.8449974,0.2059937-1.3639984,1.3049927-1.3639984h2.4439697c1.1010132,0,1.3070068,0.519001,1.3070068,1.3639984v0.7330017
				c0,0.9860001-0.2059937,1.3619995-1.1939697,1.3619995h-2.6690063c-0.9869995,0-1.1929932-0.3759995-1.1929932-1.3619995
				V57.5464478z"/>
		</g>
		<polygon class="st1" points="85.0731277,61.3146477 87.1591263,61.3146477 87.1591263,56.3716507 87.1781082,56.3716507 
			91.0980911,61.3146477 94.3320999,61.3146477 94.3320999,54.5096512 92.2451248,54.5096512 92.2451248,59.4546509 
			92.2260818,59.4546509 88.3051224,54.5096512 85.0731277,54.5096512 		"/>
		<path class="st1" d="M96.8952103,61.3148499h2.3309937l0.6099854-1.2019997h4.2300415l0.6489868,1.2019997h2.3219604
			l-3.7419434-6.8050003h-2.7150269L96.8952103,61.3148499z M101.9332352,56.0888481l1.3529663,2.557003h-2.6690063
			L101.9332352,56.0888481z"/>
		<g>
			<path class="st1" d="M111.6862869,56.2016487h3.2630005c0.6560059,0,0.9580078,0.112999,0.9580078,0.7150002v0.2260017
				c0,0.487999-0.2069702,0.7129974-0.7709961,0.7129974h-3.4500122V56.2016487z M109.601326,61.3146477h2.0849609v-1.7669983
				h3.2819824c0.6470337,0,0.8550415,0.2350006,0.8550415,0.9500008v0.8169975h2.0849609v-1.1559982
				c0-1.118-0.5149536-1.3909988-1.1349487-1.5040016v-0.0189972c0.9579468-0.2250023,1.1640015-0.7610016,1.1640015-1.6730003
				v-0.4309998c0-1.2229996-0.4320068-2.0219994-2.0400391-2.0219994h-6.2959595V61.3146477z"/>
		</g>
		<rect x="121.2815628" y="54.5095482" class="st1" width="2.085022" height="6.8050003"/>
		<g>
			<path class="st1" d="M129.8598785,53.9466476c0.0380249-0.310997,0.2730103-0.5549965,0.5820313-0.5549965
				c0.4140015,0,1.0629883,0.4519997,1.7869873,0.4519997c0.9680176,0,1.382019-0.7350006,1.4940186-1.5890007h-0.8920288
				c-0.0379639,0.2630005-0.2639771,0.5169983-0.5459595,0.5169983c-0.3760376,0-1.2130127-0.5169983-1.8050537-0.5169983
				c-0.8739624,0-1.4189453,0.9209976-1.5130005,1.6919975H129.8598785z M126.7119217,61.3146477h2.0860062v-4.942997h0.0189819
				l3.9179688,4.942997h3.2340088v-6.8049965h-2.0869751v4.9449997h-0.019043l-3.9189453-4.9449997h-3.2320023V61.3146477z"/>
			<path class="st1" d="M139.0501251,58.9274483c0,1.9920006,1.117981,2.4630013,2.9989624,2.4630013h3.3469849
				c1.8790283,0,2.9970093-0.4710007,2.9970093-2.4630013v-2.0299988c0-1.993-1.117981-2.4630013-2.9970093-2.4630013h-3.3469849
				c-1.8809814,0-2.9989624,0.4700012-2.9989624,2.4630013V58.9274483z M141.1931305,57.5464478
				c0-0.8449974,0.2059937-1.3639984,1.3069458-1.3639984h2.4440308c1.098999,0,1.3070068,0.519001,1.3070068,1.3639984v0.7330017
				c0,0.9860001-0.2080078,1.3619995-1.1950073,1.3619995h-2.6690063c-0.9879761,0-1.1939697-0.3759995-1.1939697-1.3619995
				V57.5464478z"/>
			<path class="st1" d="M0.7916369,48.4431496c0,1.2450027,0.6279907,1.6100006,2.1869507,1.6100006h2.8309937
				c1.559021,0,2.1870117-0.3649979,2.1870117-1.6100006v-4.593998H7.1655993v4.5849991
				c0,0.5930023-0.2030029,0.9410019-1.3309937,0.9410019H2.9536242c-1.1279907,0-1.3309937-0.3479996-1.3309937-0.9410019
				v-4.5849991H0.7916369V48.4431496z"/>
		</g>
		<polygon class="st1" points="16.256115,49.9846497 17.0850945,49.9846497 17.0850945,44.5936508 22.704113,49.9846497 
			23.9430656,49.9846497 23.9430656,43.8486519 23.112072,43.8486519 23.112072,49.2396507 17.4931145,43.8486519 
			16.256115,43.8486519 		"/>
		<rect x="32.2265739" y="43.8495522" class="st1" width="0.8319702" height="6.1349983"/>
		<polygon class="st1" points="44.1496696,49.9846497 45.167614,49.9846497 48.5646477,43.8486519 47.6326408,43.8486519 
			44.6586418,49.2396507 41.6836662,43.8486519 40.7506218,43.8486519 		"/>
		<polygon class="st1" points="56.2376213,49.9846497 62.2985954,49.9846497 62.2985954,49.3076515 57.068615,49.3076515 
			57.068615,47.1616516 62.0606194,47.1616516 62.0606194,46.4846497 57.068615,46.4846497 57.068615,44.5276527 
			62.2635612,44.5276527 62.2635612,43.8486519 56.2376213,43.8486519 		"/>
		<g>
			<path class="st1" d="M70.1906815,49.9845505h0.8310547v-2.4230003h4.0509644
				c0.7540283,0,1.2210083,0.1189995,1.2210083,1.0769997v1.3460007h0.7799683v-1.5680008
				c0-0.5589981-0.2049561-1-1.0519409-1.1519966V47.247551c0.6359863-0.0589981,1.1279907-0.2970009,1.1279907-1.1609993v-0.5
				c0-1.1529999-0.2810059-1.737999-2.052002-1.737999h-4.9070435V49.9845505z M71.0217361,46.8825493v-2.3549995h3.7789917
				c1.2210083,0,1.5180054,0.2190018,1.5180054,0.9070015v0.5579987c0,0.644001-0.3900146,0.8899994-1.3130493,0.8899994H71.0217361
				z"/>
			<path class="st1" d="M85.1366653,48.5019493c0,1.3390007,1.0669556,1.5510025,2.2789917,1.5510025h2.3059692
				c1.2290039,0,2.4660034-0.1110001,2.4660034-1.6189995v-0.3980026c0-1.0419998-0.6790161-1.5089989-2.2960205-1.5089989
				h-2.4589844c-1.2969971,0-1.5249634-0.2449989-1.5249634-0.9749985c0-1.0079994,0.5679932-1.0930023,2.1689453-1.0930023
				h0.882019c2.1780396,0,2.2810059,0.1780014,2.2969971,1.1529999h0.7800293v-0.211998
				c0-1.0930023-0.5170288-1.6200027-2.5770264-1.6200027h-1.7879639c-1.7120361,0-2.5440063,0.3150024-2.5440063,1.7130013
				c0,1.6280022,0.8319702,1.7800026,3.3659668,1.7800026h1.5759888c1.0339966,0,1.3390503,0.1949997,1.3390503,0.9649963
				c0,0.882-0.3550415,1.1380005-1.559021,1.1380005h-2.5770264c-1.0339966,0-1.355957-0.2889977-1.355957-0.8919983v-0.4309998
				h-0.7789917V48.5019493z"/>
		</g>
		<rect x="100.3615189" y="43.8495522" class="st1" width="0.8289795" height="6.1349983"/>
		<g>
			<path class="st1" d="M116.2165604,47.2476501c0,1.8390007-0.6950073,2.0600014-1.7039795,2.0600014h-4.2119751v-4.7799988
				h4.3469849c1.0180054,0,1.5689697,0.3219986,1.5689697,2.0929985V47.2476501z M109.4696121,49.9846497h4.93396
				c2.0839844,0,2.6439819-0.8129997,2.6439819-3.0669975c0-2.4249992-0.5599976-3.0690002-2.6189575-3.0690002h-4.9589844
				V49.9846497z"/>
		</g>
		<path class="st1" d="M124.5070877,49.9841537h0.94104l0.7630005-1.295002h4.9159622l0.7630005,1.295002h0.9400024
			l-3.6439819-6.1350021h-1.0339966L124.5070877,49.9841537z M130.7291412,48.0101509h-4.1200638l2.0600052-3.4829979
			L130.7291412,48.0101509z"/>
		<g>
			<path class="st1" d="M147.1483307,47.2476501c0,1.8390007-0.6950073,2.0600014-1.7030029,2.0600014h-4.2130127v-4.7799988
				h4.348999c1.0169678,0,1.5670166,0.3219986,1.5670166,2.0929985V47.2476501z M140.4033356,49.9846497h4.9319458
				c2.0840454,0,2.644043-0.8129997,2.644043-3.0669975c0-2.4249992-0.5599976-3.0690002-2.618042-3.0690002h-4.9579468V49.9846497z
				"/>
			<path class="st1" d="M0.7314563,25.1853523c0,9.5350037,4.9259644,14.0880051,15.730957,14.0880051h16.8410034
				c10.8049927,0,15.7290039-4.5530014,15.7290039-14.0880051V0.5053512H37.2764397v22.1390076
				c0,4.871994-1.7479858,6.7789993-6.5679932,6.7789993H19.0564079c-4.8189697,0-6.5669556-1.9070053-6.5669556-6.7789993
				V0.5053512H0.7314563V25.1853523z"/>
			<path class="st1" d="M147.9698639,14.4375486c0-9.5329971-4.9260254-14.0879974-15.7310181-14.0879974h-16.841011
				c-10.8049927,0-15.7290039,4.5550003-15.7290039,14.0879974v24.6790009h11.7559814V16.97855
				c0-4.871995,1.7479858-6.7790003,6.5679932-6.7790003h11.6520462c4.8189697,0,6.5669556,1.9070053,6.5669556,6.7790003
				v22.1380005h11.7580566V14.4375486z"/>
			<path class="st1" d="M98.4489212,14.4375486c0-9.5329971-4.9260254-14.0879974-15.7290039-14.0879974H65.8768997
				c-10.8029747,0-15.7290001,4.5550003-15.7290001,14.0879974v24.6790009h11.7579956V16.97855
				c0-4.871995,1.7470093-6.7790003,6.5670128-6.7790003h11.6519775c4.8179932,0,6.565979,1.9070053,6.565979,6.7790003v22.1380005
				h11.7580566V14.4375486z"/>
		</g>
		<rect x="58.6985588" y="18.2545509" class="st1" width="31.632019" height="10.302002"/>
	</g>
	<g>
	</g>
</g>
</svg>
